<svg width="300" height="300" viewBox="0 0 300 300" fill="none" xmlns="http://www.w3.org/2000/svg">
<path d="M300 150C300 232.843 232.843 300 150 300C67.1573 300 0 232.843 0 150C0 67.1573 67.1573 0 150 0C232.843 0 300 67.1573 300 150ZM35.7112 150C35.7112 213.12 86.8801 264.289 150 264.289C213.12 264.289 264.289 213.12 264.289 150C264.289 86.8801 213.12 35.7112 150 35.7112C86.8801 35.7112 35.7112 86.8801 35.7112 150Z" fill="#C4C4C4"/>
<path d="M300 150C300 180.765 290.54 210.786 272.903 235.993C255.266 261.2 230.305 280.375 201.403 290.917C172.501 301.46 141.056 302.861 111.331 294.93C81.6063 286.999 55.0388 270.12 35.2302 246.581L62.554 223.588C77.6467 241.523 97.8891 254.383 120.537 260.426C143.186 266.469 167.144 265.401 189.165 257.369C211.186 249.336 230.205 234.726 243.643 215.52C257.081 196.314 264.289 173.44 264.289 150H300Z" fill="#00C437"/>
</svg>
