<svg width="65" height="65" viewBox="0 0 200 199" fill="none" xmlns="http://www.w3.org/2000/svg">
<rect width="200" height="199" rx="46" fill="white"/>
<circle cx="100" cy="99" r="20" fill="black"/>
<rect width="200" height="199" rx="46" fill="white"/>
<circle cx="46" cy="156" r="20" fill="black"/>
<path d="M171 49C171 60.0457 162.046 69 151 69C139.954 69 131 60.0457 131 49C131 37.9543 139.954 29 151 29C162.046 29 171 37.9543 171 49Z" fill="black"/>
<path d="M120 100C120 111.046 111.046 120 100 120C88.9543 120 80 111.046 80 100C80 88.9543 88.9543 80 100 80C111.046 80 120 88.9543 120 100Z" fill="black"/>
<path d="M120 100C120 111.046 111.046 120 100 120C88.9543 120 80 111.046 80 100C80 88.9543 88.9543 80 100 80C111.046 80 120 88.9543 120 100Z" fill="black"/>
</svg>
