<svg width="65" height="65" viewBox="0 0 200 199" fill="none" xmlns="http://www.w3.org/2000/svg">
<rect width="200" height="199" rx="46" fill="white"/>
<circle cx="100" cy="99" r="20" fill="black"/>
<rect width="200" height="199" rx="46" fill="white"/>
<circle cx="46" cy="156" r="20" fill="black"/>
<circle cx="100" cy="103" r="20" fill="black"/>
<path d="M171 49C171 60.0457 162.046 69 151 69C139.954 69 131 60.0457 131 49C131 37.9543 139.954 29 151 29C162.046 29 171 37.9543 171 49Z" fill="black"/>
<path d="M171 157C171 168.046 162.046 177 151 177C139.954 177 131 168.046 131 157C131 145.954 139.954 137 151 137C162.046 137 171 145.954 171 157Z" fill="black"/>
<path d="M171 49C171 60.0457 162.046 69 151 69C139.954 69 131 60.0457 131 49C131 37.9543 139.954 29 151 29C162.046 29 171 37.9543 171 49Z" fill="black"/>
<path d="M171 157C171 168.046 162.046 177 151 177C139.954 177 131 168.046 131 157C131 145.954 139.954 137 151 137C162.046 137 171 145.954 171 157Z" fill="black"/>
<path d="M66 50C66 61.0457 57.0457 70 46 70C34.9543 70 26 61.0457 26 50C26 38.9543 34.9543 30 46 30C57.0457 30 66 38.9543 66 50Z" fill="black"/>
</svg>
