<svg width="1100" height="84" viewBox="0 0 1100 84" fill="none" xmlns="http://www.w3.org/2000/svg">
<rect y="6" width="108.592" height="78" fill="#EA7C7C"/>
<rect width="105.576" height="6" fill="#CFCFCF"/>
<rect y="22" width="102.559" height="6" fill="#CFCFCF"/>
<rect y="44" width="105.576" height="6" fill="#CFCFCF"/>
<rect y="66" width="105.576" height="6" fill="#CFCFCF"/>
<rect width="6.03291" height="28" fill="#CFCFCF"/>
<rect x="51.2797" y="22" width="6.03291" height="28" fill="#CFCFCF"/>
<rect x="34.1865" width="6.03291" height="28" fill="#CFCFCF"/>
<rect x="34.1865" y="44" width="6.03291" height="28" fill="#CFCFCF"/>
<rect x="51.2797" y="66" width="6.03291" height="18" fill="#CFCFCF"/>
<rect x="68.3729" width="6.03291" height="28" fill="#CFCFCF"/>
<rect x="68.3729" y="44" width="6.03291" height="28" fill="#CFCFCF"/>
<rect x="102.559" width="6.03291" height="28" fill="#CFCFCF"/>
<rect x="85.4662" y="22" width="6.03291" height="28" fill="#CFCFCF"/>
<rect x="102.559" y="44" width="6.03291" height="28" fill="#CFCFCF"/>
<rect x="85.4662" y="66" width="6.03291" height="18" fill="#CFCFCF"/>
<rect x="17.0933" y="22" width="6.03291" height="22" fill="#CFCFCF"/>
<rect y="44" width="6.03291" height="28" fill="#CFCFCF"/>
<rect x="17.0933" y="66" width="6.03291" height="18" fill="#CFCFCF"/>
<rect x="102.559" y="6" width="108.592" height="78" fill="#EA7C7C"/>
<rect x="102.559" width="105.576" height="6" fill="#CFCFCF"/>
<rect x="102.559" y="22" width="102.559" height="6" fill="#CFCFCF"/>
<rect x="102.559" y="44" width="105.576" height="6" fill="#CFCFCF"/>
<rect x="102.559" y="66" width="105.576" height="6" fill="#CFCFCF"/>
<rect x="102.559" width="6.03291" height="28" fill="#CFCFCF"/>
<rect x="153.839" y="22" width="6.03291" height="28" fill="#CFCFCF"/>
<rect x="136.746" width="6.03291" height="28" fill="#CFCFCF"/>
<rect x="136.746" y="44" width="6.03291" height="28" fill="#CFCFCF"/>
<rect x="153.839" y="66" width="6.03291" height="18" fill="#CFCFCF"/>
<rect x="170.932" width="6.03291" height="28" fill="#CFCFCF"/>
<rect x="170.932" y="44" width="6.03291" height="28" fill="#CFCFCF"/>
<rect x="205.119" width="6.03291" height="28" fill="#CFCFCF"/>
<rect x="188.026" y="22" width="6.03291" height="28" fill="#CFCFCF"/>
<rect x="205.119" y="44" width="6.03291" height="28" fill="#CFCFCF"/>
<rect x="188.026" y="66" width="6.03291" height="18" fill="#CFCFCF"/>
<rect x="119.653" y="22" width="6.03291" height="22" fill="#CFCFCF"/>
<rect x="102.559" y="44" width="6.03291" height="28" fill="#CFCFCF"/>
<rect x="119.653" y="66" width="6.03291" height="18" fill="#CFCFCF"/>
<rect x="205.119" y="6" width="108.592" height="78" fill="#EA7C7C"/>
<rect x="205.119" width="105.576" height="6" fill="#CFCFCF"/>
<rect x="205.119" y="22" width="102.559" height="6" fill="#CFCFCF"/>
<rect x="205.119" y="44" width="105.576" height="6" fill="#CFCFCF"/>
<rect x="205.119" y="66" width="105.576" height="6" fill="#CFCFCF"/>
<rect x="205.119" width="6.03291" height="28" fill="#CFCFCF"/>
<rect x="256.399" y="22" width="6.03291" height="28" fill="#CFCFCF"/>
<rect x="239.305" width="6.03291" height="28" fill="#CFCFCF"/>
<rect x="239.305" y="44" width="6.03291" height="28" fill="#CFCFCF"/>
<rect x="256.399" y="66" width="6.03291" height="18" fill="#CFCFCF"/>
<rect x="273.492" width="6.03291" height="28" fill="#CFCFCF"/>
<rect x="273.492" y="44" width="6.03291" height="28" fill="#CFCFCF"/>
<rect x="307.678" width="6.03291" height="28" fill="#CFCFCF"/>
<rect x="290.585" y="22" width="6.03291" height="28" fill="#CFCFCF"/>
<rect x="307.678" y="44" width="6.03291" height="28" fill="#CFCFCF"/>
<rect x="290.585" y="66" width="6.03291" height="18" fill="#CFCFCF"/>
<rect x="222.212" y="22" width="6.03291" height="22" fill="#CFCFCF"/>
<rect x="205.119" y="44" width="6.03291" height="28" fill="#CFCFCF"/>
<rect x="222.212" y="66" width="6.03291" height="18" fill="#CFCFCF"/>
<rect x="307.678" y="6" width="108.592" height="78" fill="#EA7C7C"/>
<rect x="307.678" width="105.576" height="6" fill="#CFCFCF"/>
<rect x="307.678" y="22" width="102.559" height="6" fill="#CFCFCF"/>
<rect x="307.678" y="44" width="105.576" height="6" fill="#CFCFCF"/>
<rect x="307.678" y="66" width="105.576" height="6" fill="#CFCFCF"/>
<rect x="307.678" width="6.03291" height="28" fill="#CFCFCF"/>
<rect x="358.958" y="22" width="6.03291" height="28" fill="#CFCFCF"/>
<rect x="341.865" width="6.03291" height="28" fill="#CFCFCF"/>
<rect x="341.865" y="44" width="6.03291" height="28" fill="#CFCFCF"/>
<rect x="358.958" y="66" width="6.03291" height="18" fill="#CFCFCF"/>
<rect x="376.051" width="6.03291" height="28" fill="#CFCFCF"/>
<rect x="376.051" y="44" width="6.03291" height="28" fill="#CFCFCF"/>
<rect x="410.238" width="6.03291" height="28" fill="#CFCFCF"/>
<rect x="393.144" y="22" width="6.03291" height="28" fill="#CFCFCF"/>
<rect x="410.238" y="44" width="6.03291" height="28" fill="#CFCFCF"/>
<rect x="393.144" y="66" width="6.03291" height="18" fill="#CFCFCF"/>
<rect x="324.771" y="22" width="6.03291" height="22" fill="#CFCFCF"/>
<rect x="307.678" y="44" width="6.03291" height="28" fill="#CFCFCF"/>
<rect x="324.771" y="66" width="6.03291" height="18" fill="#CFCFCF"/>
<rect x="410.238" y="6" width="108.592" height="78" fill="#EA7C7C"/>
<rect x="410.238" width="105.576" height="6" fill="#CFCFCF"/>
<rect x="410.238" y="22" width="102.559" height="6" fill="#CFCFCF"/>
<rect x="410.238" y="44" width="105.576" height="6" fill="#CFCFCF"/>
<rect x="410.238" y="66" width="105.576" height="6" fill="#CFCFCF"/>
<rect x="410.238" width="6.03291" height="28" fill="#CFCFCF"/>
<rect x="461.517" y="22" width="6.03291" height="28" fill="#CFCFCF"/>
<rect x="444.424" width="6.03291" height="28" fill="#CFCFCF"/>
<rect x="444.424" y="44" width="6.03291" height="28" fill="#CFCFCF"/>
<rect x="461.517" y="66" width="6.03291" height="18" fill="#CFCFCF"/>
<rect x="478.611" width="6.03291" height="28" fill="#CFCFCF"/>
<rect x="478.611" y="44" width="6.03291" height="28" fill="#CFCFCF"/>
<rect x="512.797" width="6.03291" height="28" fill="#CFCFCF"/>
<rect x="495.704" y="22" width="6.03291" height="28" fill="#CFCFCF"/>
<rect x="512.797" y="44" width="6.03291" height="28" fill="#CFCFCF"/>
<rect x="495.704" y="66" width="6.03291" height="18" fill="#CFCFCF"/>
<rect x="427.331" y="22" width="6.03291" height="22" fill="#CFCFCF"/>
<rect x="410.238" y="44" width="6.03291" height="28" fill="#CFCFCF"/>
<rect x="427.331" y="66" width="6.03291" height="18" fill="#CFCFCF"/>
<rect x="512.797" y="6" width="108.592" height="78" fill="#EA7C7C"/>
<rect x="512.797" width="105.576" height="6" fill="#CFCFCF"/>
<rect x="512.797" y="22" width="102.559" height="6" fill="#CFCFCF"/>
<rect x="512.797" y="44" width="105.576" height="6" fill="#CFCFCF"/>
<rect x="512.797" y="66" width="105.576" height="6" fill="#CFCFCF"/>
<rect x="512.797" width="6.03291" height="28" fill="#CFCFCF"/>
<rect x="564.077" y="22" width="6.03291" height="28" fill="#CFCFCF"/>
<rect x="546.984" width="6.03291" height="28" fill="#CFCFCF"/>
<rect x="546.984" y="44" width="6.03291" height="28" fill="#CFCFCF"/>
<rect x="564.077" y="66" width="6.03291" height="18" fill="#CFCFCF"/>
<rect x="581.17" width="6.03291" height="28" fill="#CFCFCF"/>
<rect x="581.17" y="44" width="6.03291" height="28" fill="#CFCFCF"/>
<rect x="615.356" width="6.03291" height="28" fill="#CFCFCF"/>
<rect x="598.263" y="22" width="6.03291" height="28" fill="#CFCFCF"/>
<rect x="615.356" y="44" width="6.03291" height="28" fill="#CFCFCF"/>
<rect x="598.263" y="66" width="6.03291" height="18" fill="#CFCFCF"/>
<rect x="529.89" y="22" width="6.03291" height="22" fill="#CFCFCF"/>
<rect x="512.797" y="44" width="6.03291" height="28" fill="#CFCFCF"/>
<rect x="529.89" y="66" width="6.03291" height="18" fill="#CFCFCF"/>
<rect x="615.357" y="6" width="108.592" height="78" fill="#EA7C7C"/>
<rect x="615.357" width="105.576" height="6" fill="#CFCFCF"/>
<rect x="615.357" y="22" width="102.559" height="6" fill="#CFCFCF"/>
<rect x="615.357" y="44" width="105.576" height="6" fill="#CFCFCF"/>
<rect x="615.357" y="66" width="105.576" height="6" fill="#CFCFCF"/>
<rect x="615.357" width="6.03291" height="28" fill="#CFCFCF"/>
<rect x="666.636" y="22" width="6.03291" height="28" fill="#CFCFCF"/>
<rect x="649.543" width="6.03291" height="28" fill="#CFCFCF"/>
<rect x="649.543" y="44" width="6.03291" height="28" fill="#CFCFCF"/>
<rect x="666.636" y="66" width="6.03291" height="18" fill="#CFCFCF"/>
<rect x="683.729" width="6.03291" height="28" fill="#CFCFCF"/>
<rect x="683.729" y="44" width="6.03291" height="28" fill="#CFCFCF"/>
<rect x="717.916" width="6.03291" height="28" fill="#CFCFCF"/>
<rect x="700.823" y="22" width="6.03291" height="28" fill="#CFCFCF"/>
<rect x="717.916" y="44" width="6.03291" height="28" fill="#CFCFCF"/>
<rect x="700.823" y="66" width="6.03291" height="18" fill="#CFCFCF"/>
<rect x="632.45" y="22" width="6.03291" height="22" fill="#CFCFCF"/>
<rect x="615.357" y="44" width="6.03291" height="28" fill="#CFCFCF"/>
<rect x="632.45" y="66" width="6.03291" height="18" fill="#CFCFCF"/>
<rect x="717.916" y="6" width="108.592" height="78" fill="#EA7C7C"/>
<rect x="717.916" width="105.576" height="6" fill="#CFCFCF"/>
<rect x="717.916" y="22" width="102.559" height="6" fill="#CFCFCF"/>
<rect x="717.916" y="44" width="105.576" height="6" fill="#CFCFCF"/>
<rect x="717.916" y="66" width="105.576" height="6" fill="#CFCFCF"/>
<rect x="717.916" width="6.03291" height="28" fill="#CFCFCF"/>
<rect x="769.196" y="22" width="6.03291" height="28" fill="#CFCFCF"/>
<rect x="752.102" width="6.03291" height="28" fill="#CFCFCF"/>
<rect x="752.102" y="44" width="6.03291" height="28" fill="#CFCFCF"/>
<rect x="769.196" y="66" width="6.03291" height="18" fill="#CFCFCF"/>
<rect x="786.289" width="6.03291" height="28" fill="#CFCFCF"/>
<rect x="786.289" y="44" width="6.03291" height="28" fill="#CFCFCF"/>
<rect x="820.475" width="6.03291" height="28" fill="#CFCFCF"/>
<rect x="803.382" y="22" width="6.03291" height="28" fill="#CFCFCF"/>
<rect x="820.475" y="44" width="6.03291" height="28" fill="#CFCFCF"/>
<rect x="803.382" y="66" width="6.03291" height="18" fill="#CFCFCF"/>
<rect x="735.009" y="22" width="6.03291" height="22" fill="#CFCFCF"/>
<rect x="717.916" y="44" width="6.03291" height="28" fill="#CFCFCF"/>
<rect x="735.009" y="66" width="6.03291" height="18" fill="#CFCFCF"/>
<rect x="820.475" y="6" width="108.592" height="78" fill="#EA7C7C"/>
<rect x="820.475" width="105.576" height="6" fill="#CFCFCF"/>
<rect x="820.475" y="22" width="102.559" height="6" fill="#CFCFCF"/>
<rect x="820.475" y="44" width="105.576" height="6" fill="#CFCFCF"/>
<rect x="820.475" y="66" width="105.576" height="6" fill="#CFCFCF"/>
<rect x="820.475" width="6.03291" height="28" fill="#CFCFCF"/>
<rect x="871.755" y="22" width="6.03291" height="28" fill="#CFCFCF"/>
<rect x="854.662" width="6.03291" height="28" fill="#CFCFCF"/>
<rect x="854.662" y="44" width="6.03291" height="28" fill="#CFCFCF"/>
<rect x="871.755" y="66" width="6.03291" height="18" fill="#CFCFCF"/>
<rect x="888.848" width="6.03291" height="28" fill="#CFCFCF"/>
<rect x="888.848" y="44" width="6.03291" height="28" fill="#CFCFCF"/>
<rect x="923.035" width="6.03291" height="28" fill="#CFCFCF"/>
<rect x="905.941" y="22" width="6.03291" height="28" fill="#CFCFCF"/>
<rect x="923.035" y="44" width="6.03291" height="28" fill="#CFCFCF"/>
<rect x="905.941" y="66" width="6.03291" height="18" fill="#CFCFCF"/>
<rect x="837.569" y="22" width="6.03291" height="22" fill="#CFCFCF"/>
<rect x="820.475" y="44" width="6.03291" height="28" fill="#CFCFCF"/>
<rect x="837.569" y="66" width="6.03291" height="18" fill="#CFCFCF"/>
<rect x="923.035" y="6" width="108.592" height="78" fill="#EA7C7C"/>
<rect x="923.035" width="105.576" height="6" fill="#CFCFCF"/>
<rect x="923.035" y="22" width="102.559" height="6" fill="#CFCFCF"/>
<rect x="923.035" y="44" width="105.576" height="6" fill="#CFCFCF"/>
<rect x="923.035" y="66" width="105.576" height="6" fill="#CFCFCF"/>
<rect x="923.035" width="6.03291" height="28" fill="#CFCFCF"/>
<rect x="974.314" y="22" width="6.03291" height="28" fill="#CFCFCF"/>
<rect x="957.221" width="6.03291" height="28" fill="#CFCFCF"/>
<rect x="957.221" y="44" width="6.03291" height="28" fill="#CFCFCF"/>
<rect x="974.314" y="66" width="6.03291" height="18" fill="#CFCFCF"/>
<rect x="991.408" width="6.03291" height="28" fill="#CFCFCF"/>
<rect x="991.408" y="44" width="6.03291" height="28" fill="#CFCFCF"/>
<rect x="1025.59" width="6.03291" height="28" fill="#CFCFCF"/>
<rect x="1008.5" y="22" width="6.03291" height="28" fill="#CFCFCF"/>
<rect x="1025.59" y="44" width="6.03291" height="28" fill="#CFCFCF"/>
<rect x="1008.5" y="66" width="6.03291" height="18" fill="#CFCFCF"/>
<rect x="940.128" y="22" width="6.03291" height="22" fill="#CFCFCF"/>
<rect x="923.035" y="44" width="6.03291" height="28" fill="#CFCFCF"/>
<rect x="940.128" y="66" width="6.03291" height="18" fill="#CFCFCF"/>
<rect x="1025.1" y="6" width="74.8099" height="78" fill="#EA7C7C"/>
<rect x="1025.71" width="73.9253" height="6" fill="#CFCFCF"/>
<rect x="1025.71" y="22" width="73.9253" height="6" fill="#CFCFCF"/>
<rect x="1025.71" y="44" width="73.9253" height="6" fill="#CFCFCF"/>
<rect x="1025.71" y="66" width="73.9253" height="6" fill="#CFCFCF"/>
<rect x="1025" width="6.03291" height="28" fill="#CFCFCF"/>
<rect x="1076.87" y="22" width="6.03291" height="28" fill="#CFCFCF"/>
<rect x="1059.78" width="6.03291" height="28" fill="#CFCFCF"/>
<rect x="1059.78" y="44" width="6.03291" height="28" fill="#CFCFCF"/>
<rect x="1076.87" y="66" width="6.03291" height="18" fill="#CFCFCF"/>
<rect x="1093.97" width="6.03291" height="28" fill="#CFCFCF"/>
<rect x="1093.97" y="44" width="6.03291" height="28" fill="#CFCFCF"/>
<rect x="1042.69" y="22" width="6.03291" height="22" fill="#CFCFCF"/>
<rect x="1025" y="44" width="6.03291" height="28" fill="#CFCFCF"/>
<rect x="1042.69" y="66" width="6.03291" height="18" fill="#CFCFCF"/>
</svg>
