<svg width="1375" height="272" viewBox="0 0 1375 272" fill="none" xmlns="http://www.w3.org/2000/svg">
<circle cx="40.5" cy="155.5" r="40.5" fill="white"/>
<circle cx="106.5" cy="127.5" r="40.5" fill="white"/>
<circle cx="80.5" cy="105.5" r="40.5" fill="white"/>
<circle cx="100.5" cy="168.5" r="40.5" fill="white"/>
<circle cx="146.5" cy="86.5" r="40.5" fill="white"/>
<circle cx="154.5" cy="145.5" r="40.5" fill="white"/>
<circle cx="201.5" cy="115.5" r="40.5" fill="white"/>
<circle cx="206.5" cy="161.5" r="40.5" fill="white"/>
<circle cx="253.5" cy="145.5" r="40.5" fill="white"/>
<circle cx="154.5" cy="155.5" r="40.5" fill="white"/>
<circle cx="218.5" cy="129.5" r="40.5" fill="white"/>
<circle cx="284.5" cy="101.5" r="40.5" fill="white"/>
<circle cx="258.5" cy="79.5" r="40.5" fill="white"/>
<circle cx="278.5" cy="142.5" r="40.5" fill="white"/>
<circle cx="324.5" cy="60.5" r="40.5" fill="white"/>
<circle cx="332.5" cy="119.5" r="40.5" fill="white"/>
<circle cx="379.5" cy="89.5" r="40.5" fill="white"/>
<circle cx="384.5" cy="135.5" r="40.5" fill="white"/>
<circle cx="431.5" cy="119.5" r="40.5" fill="white"/>
<circle cx="332.5" cy="129.5" r="40.5" fill="white"/>
<circle cx="430.5" cy="191.5" r="40.5" fill="white"/>
<circle cx="496.5" cy="163.5" r="40.5" fill="white"/>
<circle cx="470.5" cy="141.5" r="40.5" fill="white"/>
<circle cx="490.5" cy="204.5" r="40.5" fill="white"/>
<circle cx="536.5" cy="122.5" r="40.5" fill="white"/>
<circle cx="544.5" cy="181.5" r="40.5" fill="white"/>
<circle cx="591.5" cy="151.5" r="40.5" fill="white"/>
<circle cx="596.5" cy="197.5" r="40.5" fill="white"/>
<circle cx="643.5" cy="181.5" r="40.5" fill="white"/>
<circle cx="544.5" cy="191.5" r="40.5" fill="white"/>
<circle cx="622.5" cy="155.5" r="40.5" fill="white"/>
<circle cx="688.5" cy="127.5" r="40.5" fill="white"/>
<circle cx="662.5" cy="105.5" r="40.5" fill="white"/>
<circle cx="682.5" cy="168.5" r="40.5" fill="white"/>
<circle cx="728.5" cy="86.5" r="40.5" fill="white"/>
<circle cx="736.5" cy="145.5" r="40.5" fill="white"/>
<circle cx="783.5" cy="115.5" r="40.5" fill="white"/>
<circle cx="788.5" cy="161.5" r="40.5" fill="white"/>
<circle cx="835.5" cy="145.5" r="40.5" fill="white"/>
<circle cx="736.5" cy="155.5" r="40.5" fill="white"/>
<circle cx="653.5" cy="109.5" r="40.5" fill="white"/>
<circle cx="719.5" cy="81.5" r="40.5" fill="white"/>
<circle cx="693.5" cy="59.5" r="40.5" fill="white"/>
<circle cx="713.5" cy="122.5" r="40.5" fill="white"/>
<circle cx="759.5" cy="40.5" r="40.5" fill="white"/>
<circle cx="767.5" cy="99.5" r="40.5" fill="white"/>
<circle cx="814.5" cy="69.5" r="40.5" fill="white"/>
<circle cx="819.5" cy="115.5" r="40.5" fill="white"/>
<circle cx="866.5" cy="99.5" r="40.5" fill="white"/>
<circle cx="767.5" cy="109.5" r="40.5" fill="white"/>
<circle cx="922.5" cy="125.5" r="40.5" fill="white"/>
<circle cx="988.5" cy="97.5" r="40.5" fill="white"/>
<circle cx="962.5" cy="75.5" r="40.5" fill="white"/>
<circle cx="982.5" cy="138.5" r="40.5" fill="white"/>
<circle cx="1028.5" cy="56.5" r="40.5" fill="white"/>
<circle cx="1036.5" cy="115.5" r="40.5" fill="white"/>
<circle cx="1083.5" cy="85.5" r="40.5" fill="white"/>
<circle cx="1088.5" cy="131.5" r="40.5" fill="white"/>
<circle cx="1135.5" cy="115.5" r="40.5" fill="white"/>
<circle cx="1036.5" cy="125.5" r="40.5" fill="white"/>
<circle cx="1121.5" cy="218.5" r="40.5" fill="white"/>
<circle cx="1187.5" cy="190.5" r="40.5" fill="white"/>
<circle cx="1161.5" cy="168.5" r="40.5" fill="white"/>
<circle cx="1181.5" cy="231.5" r="40.5" fill="white"/>
<circle cx="1227.5" cy="149.5" r="40.5" fill="white"/>
<circle cx="1235.5" cy="208.5" r="40.5" fill="white"/>
<circle cx="1282.5" cy="178.5" r="40.5" fill="white"/>
<circle cx="1287.5" cy="224.5" r="40.5" fill="white"/>
<circle cx="1334.5" cy="208.5" r="40.5" fill="white"/>
<circle cx="1235.5" cy="218.5" r="40.5" fill="white"/>
</svg>
