<svg width="456" height="85" viewBox="0 0 456 85" fill="none" xmlns="http://www.w3.org/2000/svg">
<path d="M115 21C186.5 20.9999 228 42.7899 228 42.7899V61.5V85H0V42.7899C0 42.7899 43.5 21.0001 115 21Z" fill="#5C995F"/>
<path d="M343 21C414.5 20.9999 456 42.7899 456 42.7899V61.5V85H228V42.7899C228 42.7899 271.5 21.0001 343 21Z" fill="#5C995F"/>
<path d="M227 2.08704e-10C298.5 -7.78685e-05 340 21.7899 340 21.7899V40.5V64H112V21.7899C112 21.7899 155.5 7.78689e-05 227 2.08704e-10Z" fill="#5C995F"/>
</svg>
